<?xml version="1.0" encoding="utf-8"?>
<!-- Generator: Adobe Illustrator 21.1.0, SVG Export Plug-In . SVG Version: 6.00 Build 0)  -->
<svg version="1.1" xmlns="http://www.w3.org/2000/svg" xmlns:xlink="http://www.w3.org/1999/xlink" x="0px" y="0px"
	 viewBox="0 0 913.3 330.4" style="enable-background:new 0 0 913.3 330.4;" xml:space="preserve">
<style type="text/css">
	.st0{fill:none;}
	.st1{fill:#9C9B9B;}
	.st2{fill:url(#SVGID_1_);}
</style>
<g id="bg">
	<rect x="0" y="-109.6" class="st0" width="913.3" height="550.2"/>
</g>
<g id="arte">
	<g>
		<path class="st1" d="M23.4,29.6c3.1-1.4,6.2-4,6.2-9.2c0-6-5.1-9.9-12.8-9.9H0v39.4h17.5c8.6,0,14.3-4,14.3-10.8
			C31.8,33.7,28,31,23.4,29.6z M4.4,14.5h12c5.6,0,8.7,2.5,8.7,6.5c0,4.7-3.7,7.1-9.1,7.1H4.4V14.5z M17.6,45.9H4.4V32h12.4
			c6.9,0,10.5,2.5,10.5,6.8C27.3,43.3,23.6,45.9,17.6,45.9z M82.5,10.2l-18,39.7h4.6l4.7-10.4h21.5l4.6,10.4h4.8l-18-39.7H82.5z
			 M75.6,35.5l9-20.1l9,20.1H75.6z M168.7,10.5h4.3v39.4h-3.5l-25.4-32.3v32.3h-4.3V10.5h4.2l24.8,31.6V10.5z M242.4,40.8l2.9,2.9
			c-4.1,4.2-8.6,6.9-15.8,6.9c-11.4,0-19.8-9-19.8-20.3c0-11.3,8.3-20.4,19.9-20.4c7.2,0,11.4,2.5,15.4,6.2l-3,3.3
			c-3.3-3.2-7-5.4-12.4-5.4c-8.7,0-15.3,7-15.3,16.2c0,9.2,6.6,16.3,15.3,16.3C235.1,46.5,238.6,44.4,242.4,40.8z M297.7,9.8
			c-12,0-20.2,9.5-20.2,20.4c0,10.9,8.1,20.3,20,20.3c12,0,20.2-9.5,20.2-20.4C317.7,19.3,309.7,9.8,297.7,9.8z M297.7,46.5
			c-9,0-15.5-7.3-15.5-16.3S288.5,14,297.5,14s15.5,7.3,15.5,16.3S306.7,46.5,297.7,46.5z"/>
		<linearGradient id="SVGID_1_" gradientUnits="userSpaceOnUse" x1="64.0311" y1="82.9785" x2="780.9307" y2="314.5915">
			<stop  offset="0" style="stop-color:#FF8700"/>
			<stop  offset="0.9866" style="stop-color:#FF500F"/>
		</linearGradient>
		<path class="st2" d="M0,95.1h61.4v228.1H0V95.1z M219.9,89.7c-37.5,0-78,4.7-100.9,11.8l-1,0.3v221.4h61.4V150
			c11.2-1.6,19.3-2.1,36-2.1c30.3,0,45,12.5,45,38.2v137h60.9V190.7C321.3,127.4,283.4,89.7,219.9,89.7z M911.5,96
			c-18.7-4.2-32.5-6.3-56.2-6.3c-24.4,0-59.6,3.1-85.2,11.8l-1,0.3v221.4h61.4V150c7.2-1.2,14.3-2,29.2-2c15,0,23.9,1.9,33.4,4.9
			l1.3,0.4L913,96.4L911.5,96z M500.4,258.6c-12,5.8-28.3,14.8-49.5,12.2c-18.3-2.3-27.7-10-27.7-29.7v-87.8h76.6V95.1h-76.6V0
			l-61.4,32.2v208.5c0,57.2,31,89.8,88.8,89.8c23.7,0,43.4-5.1,74.3-20.4l1.1-0.5l-24.2-51.5L500.4,258.6z M606.7,204.1l26.4,50.3
			l103.1-50.2c0-76.4-36.8-114.6-106.4-114.6c-69.6,0-106.4,40.4-106.4,116.8v5.4c0,77.5,39.6,116.8,117.7,116.8
			c33.3,0,65.5-4.3,90.5-12.2l1.4-0.4l-18-55.4l-1.3,0.4c-14.9,4.7-43.1,9.4-72.6,9.4c-32.6,0-54.5-15.6-54.5-61.2
			c0-46.4,16.2-59.4,43.2-61.2c24.3-1.6,42.9,7.7,42.2,22.7v-0.1L606.7,204.1z"/>
	</g>
</g>
</svg>
